<svg id="visual" viewBox="0 0 900 675" width="900" height="675" xmlns="http://www.w3.org/2000/svg" xmlns:xlink="http://www.w3.org/1999/xlink" version="1.1"><rect x="0" y="0" width="900" height="675" fill="#dedede"></rect><defs><linearGradient id="grad1_0" x1="25%" y1="100%" x2="100%" y2="0%"><stop offset="23.333333333333336%" stop-color="#dedede" stop-opacity="1"></stop><stop offset="76.66666666666666%" stop-color="#dedede" stop-opacity="1"></stop></linearGradient></defs><defs><linearGradient id="grad2_0" x1="0%" y1="100%" x2="75%" y2="0%"><stop offset="23.333333333333336%" stop-color="#dedede" stop-opacity="1"></stop><stop offset="76.66666666666666%" stop-color="#dedede" stop-opacity="1"></stop></linearGradient></defs><g transform="translate(900, 675)"><path d="M-393.7 0C-361.1 -55.6 -328.4 -111.1 -299.6 -173C-270.9 -234.9 -246.2 -303.1 -196.9 -341C-147.6 -378.8 -73.8 -386.3 0 -393.7L0 0Z" fill="#492E87"></path></g><g transform="translate(0, 0)"><path d="M393.8 0C313.9 28.4 234.1 56.7 211.3 122C188.5 187.3 222.6 289.5 196.9 341C171.2 392.4 85.6 393.1 0 393.8L0 0Z" fill="#492E87"></path></g></svg>